<svg width="36" height="42" viewBox="0 0 36 42" fill="none" xmlns="http://www.w3.org/2000/svg">
<path d="M18.659 38.0839H28.2929V41.8613H5.17148V38.0839H14.8054V36.1007C11.7504 35.8001 8.81299 34.7882 6.23769 33.1495C3.66239 31.5109 1.52379 29.2927 0 26.6799L3.34682 24.8063C4.52367 26.822 6.15871 28.5447 8.12496 29.8405C10.0912 31.1363 12.3357 31.9703 14.6842 32.2778C17.0326 32.5854 19.4217 32.3581 21.666 31.6136C23.9103 30.8692 25.9493 29.6276 27.6247 27.9854C29.3 26.3432 30.5666 24.3445 31.3261 22.1445C32.0855 19.9446 32.3174 17.6027 32.0037 15.3007C31.69 12.9986 30.8391 10.7985 29.5172 8.87112C28.1953 6.94375 26.4379 5.34102 24.3815 4.18743L26.2929 0.906769C29.2428 2.55852 31.6946 4.94575 33.3994 7.82626C35.1042 10.7068 36.0014 13.978 36 17.3082C36 27.1011 28.395 35.1545 18.659 36.1007V38.0839ZM16.7322 30.5291C14.961 30.5291 13.2071 30.1871 11.5707 29.5227C9.93437 28.8583 8.44752 27.8844 7.19509 26.6568C5.94266 25.4291 4.94918 23.9716 4.27137 22.3676C3.59356 20.7636 3.2447 19.0444 3.2447 17.3082C3.2447 15.572 3.59356 13.8528 4.27137 12.2488C4.94918 10.6448 5.94266 9.18731 7.19509 7.95964C8.44752 6.73197 9.93437 5.75812 11.5707 5.09371C13.2071 4.4293 14.961 4.08733 16.7322 4.08733C20.3093 4.08733 23.7399 5.48024 26.2693 7.95964C28.7987 10.439 30.2197 13.8018 30.2197 17.3082C30.2197 20.8146 28.7987 24.1774 26.2693 26.6568C23.7399 29.1362 20.3093 30.5291 16.7322 30.5291ZM16.7322 26.7517C19.2872 26.7517 21.7377 25.7568 23.5444 23.9858C25.3511 22.2148 26.3661 19.8128 26.3661 17.3082C26.3661 14.8036 25.3511 12.4017 23.5444 10.6307C21.7377 8.85966 19.2872 7.86473 16.7322 7.86473C14.1771 7.86473 11.7267 8.85966 9.91997 10.6307C8.11326 12.4017 7.09827 14.8036 7.09827 17.3082C7.09827 19.8128 8.11326 22.2148 9.91997 23.9858C11.7267 25.7568 14.1771 26.7517 16.7322 26.7517Z" fill="black"/>
</svg>
